<svg width="17" height="13" viewBox="0 0 17 13" fill="none" xmlns="http://www.w3.org/2000/svg">
<path d="M15.1849 0C16.0358 0 16.7558 0.719974 16.7558 1.57085C16.7558 2.09447 16.4939 2.55263 16.1012 2.84717L8.99967 8.18152C8.60696 8.47606 8.11607 8.47606 7.72336 8.18152L0.621796 2.84717C0.229083 2.55263 0 2.09447 0 1.57085C0 0.719974 0.687248 0 1.57085 0H15.1849ZM7.10156 9.0324C7.85426 9.58875 8.86877 9.58875 9.62147 9.0324L16.7558 3.66532V10.4723C16.7558 11.6505 15.8067 12.5668 14.6613 12.5668H2.09447C0.916331 12.5668 0 11.6505 0 10.4723V3.66532L7.10156 9.0324Z" fill="white"/>
</svg>
