<svg width="18" height="18" viewBox="0 0 18 18" fill="none" xmlns="http://www.w3.org/2000/svg">
<path d="M17.4213 13.1812L16.6031 16.6245C16.5008 17.1359 16.0917 17.4768 15.5803 17.4768C6.98897 17.4428 0 10.4538 0 1.86247C0 1.35108 0.306833 0.941969 0.818221 0.839691L4.26157 0.0214704C4.73886 -0.0808072 5.25025 0.191933 5.4548 0.635136L7.05715 4.35122C7.22761 4.79442 7.12534 5.30581 6.75032 5.57855L4.90932 7.07862C6.06847 9.43101 7.97765 11.3402 10.3641 12.4993L11.8642 10.6583C12.1369 10.3174 12.6483 10.181 13.0915 10.3515L16.8076 11.9539C17.2508 12.1925 17.5236 12.7039 17.4213 13.1812Z" fill="white"/>
</svg>
